<svg id="Capa_1" data-name="Capa 1" xmlns="http://www.w3.org/2000/svg" viewBox="0 0 512 474.83"><defs><style>.cls-1{fill:#fff;}</style></defs><title>skypeIcon</title><path class="cls-1" d="M489.65,286.92a120.45,120.45,0,0,1,16.58,33.49,127.35,127.35,0,0,1-5.44,90.11A139.27,139.27,0,0,1,470,453.74a144.8,144.8,0,0,1-45.86,29.15,146.9,146.9,0,0,1-55.56,10.52q-41.88,0-75.18-19.75c-6.17.85-12.37,1.47-18.65,1.93s-12.52.6-18.75.6q-48.92,0-91.88-17.5a243.17,243.17,0,0,1-75.16-47.88A220.41,220.41,0,0,1,38.27,339.6a209.48,209.48,0,0,1-18.46-87.28,142.24,142.24,0,0,1,.94-17c.57-5.27,1.36-10.65,2.17-16Q0,187.46,0,150.79A121.74,121.74,0,0,1,11.23,99.21,129.75,129.75,0,0,1,42,57.07,148.22,148.22,0,0,1,87.81,28.83a149.94,149.94,0,0,1,55.58-10.25,153,153,0,0,1,40,5A149.23,149.23,0,0,1,218.58,38c6.14-.87,12.44-1.49,18.65-2s12.59-.62,18.73-.62q49.08,0,92.17,17a240,240,0,0,1,75.31,46.61,221.56,221.56,0,0,1,50.88,69,196,196,0,0,1,18.43,84.24A198.31,198.31,0,0,1,489.65,286.92ZM368.54,355c10.08-13.27,15.05-28.85,15.05-46.76,0-14.1-2.81-25.94-8.33-35.55a71,71,0,0,0-24.37-24c-9.63-6.21-22.16-11.72-37.49-16.65-15.42-3.87-31.77-7.65-49.05-11.52l-18.94-4.32c-5.08-1.08-9.12-2-12.16-2.83a90.69,90.69,0,0,1-9.48-2.83c-2.81-1-5.78-2.17-8.76-3.44a44.59,44.59,0,0,1-14.48-9.59c-3-3.34-4.47-7.82-4.47-13.4,0-8.14,4.85-15.42,14.48-21.86,10.91-6,24.24-8.91,40.08-8.72,18.31,0,31.17,2.7,38.42,8.12a68.86,68.86,0,0,1,20.54,23.67c4.27,6.85,8.61,11.95,13.1,15.31,4.27,3.27,10.21,5,17.67,5.27a29.29,29.29,0,0,0,21.2-8.4c5.72-5.23,8.46-11.12,8.31-17.75a44.2,44.2,0,0,0-6.42-22.5c-4.21-6.83-11.29-14.1-21-21.82a126.57,126.57,0,0,0-16.2-9.14A129.39,129.39,0,0,0,306.56,119a174.56,174.56,0,0,0-23.71-4.68,222.34,222.34,0,0,0-27.51-1.53q-38.08,0-64.23,9.31c-18.73,6.46-32.91,15.35-42.52,26.88q-14.42,16.46-14.42,39.55c0,16.2,4.66,29.38,13.84,39.55q13.87,16.49,37.61,24.94c15.05,6,34.3,11.29,57.9,15.84,8.82,2.08,16.54,3.85,23.37,5.19A181.84,181.84,0,0,1,285,278.47c10.06,2.74,18.22,7.34,24.45,13.86a27.38,27.38,0,0,1,10,21.9c0,12.4-6.08,22.43-18.09,30.09-11.35,7.85-26.71,11.72-46,11.44-15.48,0-26.68-1.79-33.79-5.4-8.82-4-15.33-9.12-19.6-15.2a99.29,99.29,0,0,1-13.25-22.94c-3-7.89-7.14-13.84-12.5-17.86a27.1,27.1,0,0,0-17.71-6.08c-8.76,0-16,2.45-21.71,7.25-5.72,5.46-8.46,11.86-8.33,19.05q0,18.79,13.82,37.59a95,95,0,0,0,35.1,30.24q31.35,16.2,78.71,16.48c25.75,0,48.69-3.83,68.66-11.46Q354.17,374.38,368.54,355Z" transform="translate(0 -18.58)"/></svg>