<svg id="Capa_1" data-name="Capa 1" xmlns="http://www.w3.org/2000/svg" viewBox="0 0 512 499.47"><defs><style>.cls-1{fill:#fff;}</style></defs><title>githubIcon</title><path class="cls-1" d="M477.66,133.76A254.88,254.88,0,0,0,384.49,40.6Q325.66,6.26,256,6.26T127.5,40.6a254.85,254.85,0,0,0-93.17,93.17Q0,192.59,0,262.25q0,83.67,48.83,150.5T175,505.24q9,1.67,13.33-2.33a13,13,0,0,0,4.33-10q0-1-.17-18t-.17-29.66l-7.67,1.33a97.8,97.8,0,0,1-18.5,1.17A141,141,0,0,1,143,445.42a51.76,51.76,0,0,1-22.33-10A42.29,42.29,0,0,1,106,414.93l-3.33-7.67a83.29,83.29,0,0,0-10.5-17Q85,380.93,77.66,377.6l-2.33-1.67a24.47,24.47,0,0,1-4.33-4,18.29,18.29,0,0,1-3-4.67q-1-2.34,1.67-3.84c1.78-1,5-1.49,9.67-1.49l6.66,1q6.67,1.34,16.5,8a53.8,53.8,0,0,1,16.17,17.33q7.67,13.67,18.5,20.84T159,416.25a94.79,94.79,0,0,0,19-1.66,66.3,66.3,0,0,0,15-5q3-22.34,16.33-34.34a228.24,228.24,0,0,1-34.17-6,136,136,0,0,1-31.33-13A89.74,89.74,0,0,1,117,333.91q-10.66-13.33-17.5-35t-6.83-50q0-40.34,26.33-68.67-12.34-30.33,2.33-68,9.67-3,28.67,4.5t27.83,12.84q8.84,5.33,14.17,9a240.73,240.73,0,0,1,128,0l12.67-8a179.39,179.39,0,0,1,30.66-14.67q17.67-6.66,27-3.66,15,37.67,2.66,68,26.33,28.33,26.34,68.67,0,28.33-6.83,50.16t-17.66,35a93.19,93.19,0,0,1-27,22.17,136.3,136.3,0,0,1-31.34,13,228,228,0,0,1-34.16,6q17.33,15,17.33,47.33v70.33a13.28,13.28,0,0,0,4.17,10q4.17,4,13.16,2.33,77.34-25.66,126.17-92.5T512,262.24Q512,192.6,477.66,133.76Z" transform="translate(0 -6.26)"/></svg>