<svg id="Capa_1" data-name="Capa 1" xmlns="http://www.w3.org/2000/svg" viewBox="0 0 512 512"><defs><style>.cls-1{fill:#fff;}</style></defs><title>linkedinIcon</title><path class="cls-1" d="M256,0C114.62,0,0,114.62,0,256S114.62,512,256,512,512,397.38,512,256,397.38,0,256,0ZM192,380H128V156h64ZM162,142.27a30,30,0,1,1,30-30A30,30,0,0,1,162,142.27ZM416,380H352V241.5c0-16.22-4.64-27.58-24.58-27.58-33.06,0-39.42,27.58-39.42,27.58V380H224V156h64v21.41A107,107,0,0,1,352,156c20.74,0,64,12.42,64,87.42V380Z"/></svg>